<svg xmlns="http://www.w3.org/2000/svg" height="24px" viewBox="172 -788 616 616" width="24px" fill="#1f1f1f"><rect x="172" y="-788" rx="80" ry="80" width="100%" height="100%" fill="#2c2c2c"/><path d="M232-172q-26 0-43-17t-17-43v-496q0-26 17-43t43-17h496q26 0 43 17t17 43v496q0 26-17 43t-43 17H232Zm0-28h119v-196h-18q-14 0-23-9t-9-23v-332h-69q-14 0-23 9t-9 23v496q0 14 9 23t23 9Zm377 0h119q14 0 23-9t9-23v-496q0-14-9-23t-23-9h-69v332q0 14-9 23t-23 9h-18v196Zm-230 0h202v-196h-18q-14 0-23-9t-9-23v-332H429v332q0 14-9 23t-23 9h-18v196Z" fill="url(#a)"/><defs><linearGradient id="a" x1="16" y1="1.333" x2="16" y2="30.667" gradientUnits="userSpaceOnUse"><stop stop-color="#FFBF00"/><stop offset="4" stop-color="#F2A50C"/></linearGradient></defs></svg>