<svg xmlns="http://www.w3.org/2000/svg" viewBox="0 8.369999885559082 212.74000549316406 48.17000198364258" data-asc="0.927734375" width="212.74000549316406" height="48.17000198364258"><defs/><g fill="#ffffffff"><g transform="translate(0, 0)"><path d="M0 32.93Q0 29.00 1.51 25.93Q3.03 22.85 5.87 21.17Q8.72 19.48 12.48 19.48Q17.82 19.48 21.20 22.75Q24.58 26.03 24.98 31.64L25.02 33.45Q25.02 39.53 21.63 43.20Q18.24 46.88 12.52 46.88Q6.81 46.88 3.41 43.21Q0 39.55 0 33.25L0 32.93M7.06 33.45Q7.06 37.21 8.47 39.20Q9.89 41.19 12.52 41.19Q15.09 41.19 16.53 39.22Q17.97 37.26 17.97 32.93Q17.97 29.25 16.53 27.22Q15.09 25.20 12.48 25.20Q9.89 25.20 8.47 27.21Q7.06 29.22 7.06 33.45ZM53.15 33.42Q53.15 39.53 50.38 43.20Q47.61 46.88 42.90 46.88Q38.89 46.88 36.43 44.09L36.43 56.54L29.37 56.54L29.37 19.97L35.91 19.97L36.16 22.56Q38.72 19.48 42.85 19.48Q47.73 19.48 50.44 23.10Q53.15 26.71 53.15 33.06L53.15 33.42M46.09 32.91Q46.09 29.22 44.79 27.22Q43.48 25.22 40.99 25.22Q37.67 25.22 36.43 27.76L36.43 38.57Q37.72 41.19 41.04 41.19Q46.09 41.19 46.09 32.91ZM73.34 43.70Q70.73 46.88 66.11 46.88Q61.87 46.88 59.63 44.43Q57.40 41.99 57.35 37.28L57.35 19.97L64.40 19.97L64.40 37.04Q64.40 41.16 68.16 41.16Q71.75 41.16 73.10 38.67L73.10 19.97L80.18 19.97L80.18 46.39L73.54 46.39L73.34 43.70ZM99.80 39.09Q99.80 37.79 98.52 37.05Q97.24 36.30 94.41 35.72Q84.99 33.74 84.99 27.71Q84.99 24.19 87.90 21.84Q90.82 19.48 95.53 19.48Q100.56 19.48 103.58 21.85Q106.59 24.22 106.59 28.00L99.54 28.00Q99.54 26.49 98.56 25.50Q97.58 24.51 95.51 24.51Q93.73 24.51 92.75 25.32Q91.77 26.12 91.77 27.37Q91.77 28.54 92.88 29.26Q93.99 29.98 96.63 30.51Q99.27 31.03 101.07 31.69Q106.67 33.74 106.67 38.79Q106.67 42.41 103.56 44.64Q100.46 46.88 95.56 46.88Q92.24 46.88 89.66 45.69Q87.08 44.51 85.62 42.44Q84.16 40.38 84.16 37.99L90.84 37.99Q90.94 39.87 92.24 40.87Q93.53 41.87 95.70 41.87Q97.73 41.87 98.77 41.10Q99.80 40.33 99.80 39.09ZM122.19 41.19Q124.15 41.19 125.37 40.11Q126.59 39.04 126.64 37.26L133.25 37.26Q133.23 39.94 131.79 42.18Q130.35 44.41 127.84 45.64Q125.34 46.88 122.31 46.88Q116.65 46.88 113.38 43.27Q110.11 39.67 110.11 33.33L110.11 32.86Q110.11 26.76 113.35 23.12Q116.60 19.48 122.27 19.48Q127.22 19.48 130.21 22.30Q133.20 25.12 133.25 29.81L126.64 29.81Q126.59 27.76 125.37 26.48Q124.15 25.20 122.14 25.20Q119.68 25.20 118.42 26.99Q117.16 28.78 117.16 32.81L117.16 33.54Q117.16 37.62 118.41 39.40Q119.65 41.19 122.19 41.19ZM152.12 26.59Q150.68 26.39 149.58 26.39Q145.58 26.39 144.34 29.10L144.34 46.39L137.28 46.39L137.28 19.97L143.95 19.97L144.14 23.12Q146.26 19.48 150.02 19.48Q151.20 19.48 152.22 19.80L152.12 26.59ZM170.09 46.39Q169.60 45.43 169.38 44.02Q166.82 46.88 162.72 46.88Q158.84 46.88 156.29 44.63Q153.74 42.38 153.74 38.96Q153.74 34.77 156.85 32.52Q159.96 30.27 165.84 30.25L169.09 30.25L169.09 28.74Q169.09 26.90 168.15 25.81Q167.21 24.71 165.19 24.71Q163.40 24.71 162.39 25.56Q161.38 26.42 161.38 27.91L154.32 27.91Q154.32 25.61 155.74 23.66Q157.15 21.70 159.74 20.59Q162.33 19.48 165.55 19.48Q170.43 19.48 173.30 21.94Q176.17 24.39 176.17 28.83L176.17 40.28Q176.20 44.04 177.22 45.97L177.22 46.39L170.09 46.39M164.26 41.48Q165.82 41.48 167.14 40.78Q168.46 40.09 169.09 38.92L169.09 34.38L166.46 34.38Q161.16 34.38 160.82 38.04L160.79 38.45Q160.79 39.77 161.72 40.63Q162.65 41.48 164.26 41.48ZM183.52 46.39L183.52 25.15L179.59 25.15L179.59 19.97L183.52 19.97L183.52 17.72Q183.52 13.28 186.07 10.83Q188.62 8.37 193.21 8.37Q194.68 8.37 196.80 8.86L196.73 14.33Q195.85 14.11 194.58 14.11Q190.60 14.11 190.60 17.85L190.60 19.97L195.85 19.97L195.85 25.15L190.60 25.15L190.60 46.39L183.52 46.39ZM207.96 13.48L207.96 19.97L212.48 19.97L212.48 25.15L207.96 25.15L207.96 38.33Q207.96 39.79 208.52 40.43Q209.08 41.06 210.67 41.06Q211.84 41.06 212.74 40.89L212.74 46.24Q210.67 46.88 208.47 46.88Q201.05 46.88 200.90 39.38L200.90 25.15L197.05 25.15L197.05 19.97L200.90 19.97L200.90 13.48L207.96 13.48Z"/></g></g></svg>